<mxfile host="app.diagrams.net" modified="2021-04-25T23:45:05.761Z" agent="5.0 (Macintosh; Intel Mac OS X 10_15_7) AppleWebKit/537.36 (KHTML, like Gecko) Chrome/90.0.4430.85 Safari/537.36" etag="Ql9F3oyvAoVF4yT-Kj4E" version="14.6.6" type="github">
  <diagram id="C5RBs43oDa-KdzZeNtuy" name="Page-1">
    <mxGraphModel dx="1572" dy="1506" grid="1" gridSize="10" guides="1" tooltips="1" connect="1" arrows="1" fold="1" page="1" pageScale="1" pageWidth="827" pageHeight="1169" math="0" shadow="0">
      <root>
        <mxCell id="WIyWlLk6GJQsqaUBKTNV-0" />
        <mxCell id="WIyWlLk6GJQsqaUBKTNV-1" parent="WIyWlLk6GJQsqaUBKTNV-0" />
        <mxCell id="VdVmt7dn1aTIMWqKeRnR-6" style="edgeStyle=orthogonalEdgeStyle;rounded=0;orthogonalLoop=1;jettySize=auto;html=1;entryX=0.5;entryY=0;entryDx=0;entryDy=0;" edge="1" parent="WIyWlLk6GJQsqaUBKTNV-1" source="WIyWlLk6GJQsqaUBKTNV-3" target="WIyWlLk6GJQsqaUBKTNV-10">
          <mxGeometry relative="1" as="geometry" />
        </mxCell>
        <mxCell id="WIyWlLk6GJQsqaUBKTNV-3" value="User Opens Webpage" style="rounded=1;whiteSpace=wrap;html=1;fontSize=12;glass=0;strokeWidth=1;shadow=0;" parent="WIyWlLk6GJQsqaUBKTNV-1" vertex="1">
          <mxGeometry x="259" y="170" width="120" height="50" as="geometry" />
        </mxCell>
        <mxCell id="VdVmt7dn1aTIMWqKeRnR-9" value="Yes" style="edgeStyle=orthogonalEdgeStyle;rounded=0;orthogonalLoop=1;jettySize=auto;html=1;" edge="1" parent="WIyWlLk6GJQsqaUBKTNV-1" source="WIyWlLk6GJQsqaUBKTNV-10" target="VdVmt7dn1aTIMWqKeRnR-8">
          <mxGeometry relative="1" as="geometry" />
        </mxCell>
        <mxCell id="VdVmt7dn1aTIMWqKeRnR-20" value="&lt;p style=&quot;line-height: 120%&quot;&gt;No&lt;/p&gt;" style="edgeStyle=orthogonalEdgeStyle;rounded=0;orthogonalLoop=1;jettySize=auto;html=1;" edge="1" parent="WIyWlLk6GJQsqaUBKTNV-1" source="WIyWlLk6GJQsqaUBKTNV-10" target="VdVmt7dn1aTIMWqKeRnR-19">
          <mxGeometry relative="1" as="geometry" />
        </mxCell>
        <mxCell id="WIyWlLk6GJQsqaUBKTNV-10" value="Do you want to&amp;nbsp;&lt;br&gt;partner on a project with me?" style="rhombus;whiteSpace=wrap;html=1;shadow=0;fontFamily=Helvetica;fontSize=12;align=center;strokeWidth=1;spacing=6;spacingTop=-4;" parent="WIyWlLk6GJQsqaUBKTNV-1" vertex="1">
          <mxGeometry x="251.5" y="260" width="135" height="140" as="geometry" />
        </mxCell>
        <mxCell id="VdVmt7dn1aTIMWqKeRnR-0" value="&lt;h1 class=&quot;header__primary-text the-pit__header-title h1&quot; style=&quot;box-sizing: border-box ; color: rgb(51 , 51 , 51) ; margin: 0px ; font-weight: 300 ; letter-spacing: 0.5px ; overflow-wrap: break-word ; border-bottom: 1px solid transparent ; font-family: &amp;#34;itc lubalin graph w01&amp;#34; ; line-height: 2.625rem ; padding: 5px 0px&quot;&gt;&lt;font style=&quot;font-size: 24px&quot;&gt;3.5 Project Part 2: Adding JS Functionality&lt;/font&gt;&lt;/h1&gt;" style="text;html=1;align=center;verticalAlign=middle;resizable=0;points=[];autosize=1;strokeColor=none;" vertex="1" parent="WIyWlLk6GJQsqaUBKTNV-1">
          <mxGeometry x="40" y="40" width="450" height="60" as="geometry" />
        </mxCell>
        <mxCell id="VdVmt7dn1aTIMWqKeRnR-1" value="&lt;font style=&quot;font-size: 18px&quot;&gt;Brain Storm:&lt;/font&gt;" style="text;html=1;align=center;verticalAlign=middle;resizable=0;points=[];autosize=1;strokeColor=none;" vertex="1" parent="WIyWlLk6GJQsqaUBKTNV-1">
          <mxGeometry x="40" y="100" width="120" height="20" as="geometry" />
        </mxCell>
        <mxCell id="VdVmt7dn1aTIMWqKeRnR-2" value="Idea: Developer Partnership Game High Low" style="text;html=1;align=left;verticalAlign=middle;resizable=0;points=[];autosize=1;strokeColor=none;" vertex="1" parent="WIyWlLk6GJQsqaUBKTNV-1">
          <mxGeometry x="50" y="120" width="250" height="20" as="geometry" />
        </mxCell>
        <mxCell id="VdVmt7dn1aTIMWqKeRnR-14" value="Yes" style="edgeStyle=orthogonalEdgeStyle;rounded=0;orthogonalLoop=1;jettySize=auto;html=1;entryX=0.5;entryY=0;entryDx=0;entryDy=0;" edge="1" parent="WIyWlLk6GJQsqaUBKTNV-1" source="VdVmt7dn1aTIMWqKeRnR-8" target="VdVmt7dn1aTIMWqKeRnR-13">
          <mxGeometry relative="1" as="geometry" />
        </mxCell>
        <mxCell id="VdVmt7dn1aTIMWqKeRnR-8" value="Alert to open console" style="rounded=0;whiteSpace=wrap;html=1;align=center;" vertex="1" parent="WIyWlLk6GJQsqaUBKTNV-1">
          <mxGeometry x="259" y="450" width="120" height="30" as="geometry" />
        </mxCell>
        <mxCell id="VdVmt7dn1aTIMWqKeRnR-28" style="edgeStyle=orthogonalEdgeStyle;rounded=0;orthogonalLoop=1;jettySize=auto;html=1;" edge="1" parent="WIyWlLk6GJQsqaUBKTNV-1" source="VdVmt7dn1aTIMWqKeRnR-12" target="VdVmt7dn1aTIMWqKeRnR-27">
          <mxGeometry relative="1" as="geometry" />
        </mxCell>
        <mxCell id="VdVmt7dn1aTIMWqKeRnR-12" value="High Low Game&amp;nbsp;&lt;br&gt;Starts" style="rounded=0;whiteSpace=wrap;html=1;align=center;" vertex="1" parent="WIyWlLk6GJQsqaUBKTNV-1">
          <mxGeometry x="259" y="730" width="120" height="40" as="geometry" />
        </mxCell>
        <mxCell id="VdVmt7dn1aTIMWqKeRnR-21" style="edgeStyle=orthogonalEdgeStyle;rounded=0;orthogonalLoop=1;jettySize=auto;html=1;entryX=0.5;entryY=1;entryDx=0;entryDy=0;" edge="1" parent="WIyWlLk6GJQsqaUBKTNV-1" source="VdVmt7dn1aTIMWqKeRnR-13" target="VdVmt7dn1aTIMWqKeRnR-17">
          <mxGeometry relative="1" as="geometry" />
        </mxCell>
        <mxCell id="VdVmt7dn1aTIMWqKeRnR-22" value="No" style="edgeLabel;html=1;align=center;verticalAlign=middle;resizable=0;points=[];" vertex="1" connectable="0" parent="VdVmt7dn1aTIMWqKeRnR-21">
          <mxGeometry x="-0.5987" relative="1" as="geometry">
            <mxPoint y="1" as="offset" />
          </mxGeometry>
        </mxCell>
        <mxCell id="VdVmt7dn1aTIMWqKeRnR-25" value="Yes" style="edgeStyle=orthogonalEdgeStyle;rounded=0;orthogonalLoop=1;jettySize=auto;html=1;" edge="1" parent="WIyWlLk6GJQsqaUBKTNV-1" source="VdVmt7dn1aTIMWqKeRnR-13" target="VdVmt7dn1aTIMWqKeRnR-12">
          <mxGeometry relative="1" as="geometry" />
        </mxCell>
        <mxCell id="VdVmt7dn1aTIMWqKeRnR-13" value="Do you want &lt;br&gt;to play a game?" style="rhombus;whiteSpace=wrap;html=1;align=center;" vertex="1" parent="WIyWlLk6GJQsqaUBKTNV-1">
          <mxGeometry x="259" y="530" width="119.17" height="125" as="geometry" />
        </mxCell>
        <mxCell id="VdVmt7dn1aTIMWqKeRnR-23" style="edgeStyle=orthogonalEdgeStyle;rounded=0;orthogonalLoop=1;jettySize=auto;html=1;" edge="1" parent="WIyWlLk6GJQsqaUBKTNV-1" source="VdVmt7dn1aTIMWqKeRnR-17" target="VdVmt7dn1aTIMWqKeRnR-19">
          <mxGeometry relative="1" as="geometry">
            <Array as="points">
              <mxPoint x="514" y="460" />
              <mxPoint x="514" y="460" />
            </Array>
          </mxGeometry>
        </mxCell>
        <mxCell id="VdVmt7dn1aTIMWqKeRnR-17" value="Display Rejection&lt;br&gt;Message" style="rounded=0;whiteSpace=wrap;html=1;align=center;" vertex="1" parent="WIyWlLk6GJQsqaUBKTNV-1">
          <mxGeometry x="454" y="510" width="120" height="40" as="geometry" />
        </mxCell>
        <mxCell id="VdVmt7dn1aTIMWqKeRnR-19" value="End Program" style="rounded=1;whiteSpace=wrap;html=1;fontSize=12;glass=0;strokeWidth=1;shadow=0;" vertex="1" parent="WIyWlLk6GJQsqaUBKTNV-1">
          <mxGeometry x="454" y="305" width="120" height="50" as="geometry" />
        </mxCell>
        <mxCell id="VdVmt7dn1aTIMWqKeRnR-26" style="edgeStyle=orthogonalEdgeStyle;rounded=0;orthogonalLoop=1;jettySize=auto;html=1;exitX=0.5;exitY=1;exitDx=0;exitDy=0;" edge="1" parent="WIyWlLk6GJQsqaUBKTNV-1" source="VdVmt7dn1aTIMWqKeRnR-12" target="VdVmt7dn1aTIMWqKeRnR-12">
          <mxGeometry relative="1" as="geometry" />
        </mxCell>
        <mxCell id="VdVmt7dn1aTIMWqKeRnR-30" style="edgeStyle=orthogonalEdgeStyle;rounded=0;orthogonalLoop=1;jettySize=auto;html=1;" edge="1" parent="WIyWlLk6GJQsqaUBKTNV-1" source="VdVmt7dn1aTIMWqKeRnR-27" target="VdVmt7dn1aTIMWqKeRnR-29">
          <mxGeometry relative="1" as="geometry" />
        </mxCell>
        <mxCell id="VdVmt7dn1aTIMWqKeRnR-27" value="Display Rules and number max" style="rounded=0;whiteSpace=wrap;html=1;align=center;" vertex="1" parent="WIyWlLk6GJQsqaUBKTNV-1">
          <mxGeometry x="258.16999999999996" y="800" width="120" height="40" as="geometry" />
        </mxCell>
        <mxCell id="VdVmt7dn1aTIMWqKeRnR-33" value="Incorrect guess" style="edgeStyle=orthogonalEdgeStyle;rounded=0;orthogonalLoop=1;jettySize=auto;html=1;" edge="1" parent="WIyWlLk6GJQsqaUBKTNV-1" source="VdVmt7dn1aTIMWqKeRnR-29" target="VdVmt7dn1aTIMWqKeRnR-31">
          <mxGeometry relative="1" as="geometry" />
        </mxCell>
        <mxCell id="VdVmt7dn1aTIMWqKeRnR-34" value="" style="edgeStyle=orthogonalEdgeStyle;rounded=0;orthogonalLoop=1;jettySize=auto;html=1;" edge="1" parent="WIyWlLk6GJQsqaUBKTNV-1" source="VdVmt7dn1aTIMWqKeRnR-29" target="VdVmt7dn1aTIMWqKeRnR-32">
          <mxGeometry relative="1" as="geometry" />
        </mxCell>
        <mxCell id="VdVmt7dn1aTIMWqKeRnR-35" value="Correct&lt;br&gt;Guess" style="edgeLabel;html=1;align=center;verticalAlign=middle;resizable=0;points=[];" vertex="1" connectable="0" parent="VdVmt7dn1aTIMWqKeRnR-34">
          <mxGeometry x="-0.0154" y="1" relative="1" as="geometry">
            <mxPoint as="offset" />
          </mxGeometry>
        </mxCell>
        <mxCell id="VdVmt7dn1aTIMWqKeRnR-29" value="User Enters&lt;br&gt;Guess" style="shape=parallelogram;perimeter=parallelogramPerimeter;whiteSpace=wrap;html=1;fixedSize=1;align=center;" vertex="1" parent="WIyWlLk6GJQsqaUBKTNV-1">
          <mxGeometry x="259" y="880" width="120" height="40" as="geometry" />
        </mxCell>
        <mxCell id="VdVmt7dn1aTIMWqKeRnR-36" style="edgeStyle=orthogonalEdgeStyle;rounded=0;orthogonalLoop=1;jettySize=auto;html=1;entryX=0;entryY=0.5;entryDx=0;entryDy=0;" edge="1" parent="WIyWlLk6GJQsqaUBKTNV-1" source="VdVmt7dn1aTIMWqKeRnR-31" target="VdVmt7dn1aTIMWqKeRnR-29">
          <mxGeometry relative="1" as="geometry">
            <Array as="points">
              <mxPoint x="234" y="990" />
              <mxPoint x="234" y="900" />
            </Array>
          </mxGeometry>
        </mxCell>
        <mxCell id="VdVmt7dn1aTIMWqKeRnR-31" value="Message indicates guess to high or low" style="rounded=0;whiteSpace=wrap;html=1;align=center;" vertex="1" parent="WIyWlLk6GJQsqaUBKTNV-1">
          <mxGeometry x="259" y="970" width="120" height="40" as="geometry" />
        </mxCell>
        <mxCell id="VdVmt7dn1aTIMWqKeRnR-37" style="edgeStyle=orthogonalEdgeStyle;rounded=0;orthogonalLoop=1;jettySize=auto;html=1;entryX=1;entryY=0.75;entryDx=0;entryDy=0;" edge="1" parent="WIyWlLk6GJQsqaUBKTNV-1" source="VdVmt7dn1aTIMWqKeRnR-32" target="VdVmt7dn1aTIMWqKeRnR-19">
          <mxGeometry relative="1" as="geometry">
            <mxPoint x="584" y="580" as="targetPoint" />
            <Array as="points">
              <mxPoint x="594" y="900" />
              <mxPoint x="594" y="343" />
            </Array>
          </mxGeometry>
        </mxCell>
        <mxCell id="VdVmt7dn1aTIMWqKeRnR-32" value="Happy to work with you message&lt;br&gt;send Inqury to ..." style="rounded=0;whiteSpace=wrap;html=1;align=center;" vertex="1" parent="WIyWlLk6GJQsqaUBKTNV-1">
          <mxGeometry x="434" y="875" width="120" height="50" as="geometry" />
        </mxCell>
        <mxCell id="VdVmt7dn1aTIMWqKeRnR-38" value="Ashley Thibodeau&lt;br&gt;&lt;div style=&quot;text-align: right&quot;&gt;&lt;span&gt;Apr 25, 2021&lt;/span&gt;&lt;/div&gt;&lt;div style=&quot;text-align: right&quot;&gt;&lt;span class=&quot;small-padding-right&quot; style=&quot;box-sizing: border-box ; padding-right: 5px ; color: rgb(119 , 119 , 119) ; font-family: &amp;#34;open sans&amp;#34; , &amp;#34;lato&amp;#34; , &amp;#34;helvetica neue&amp;#34; , &amp;#34;arial&amp;#34; , &amp;#34;helvetica&amp;#34; , sans-serif ; font-size: 14px&quot;&gt;C202104&lt;/span&gt;&lt;span style=&quot;box-sizing: border-box ; color: rgb(119 , 119 , 119) ; font-family: &amp;#34;open sans&amp;#34; , &amp;#34;lato&amp;#34; , &amp;#34;helvetica neue&amp;#34; , &amp;#34;arial&amp;#34; , &amp;#34;helvetica&amp;#34; , sans-serif ; font-size: 14px&quot;&gt;01&lt;/span&gt;&lt;span&gt;&lt;br&gt;&lt;/span&gt;&lt;/div&gt;" style="text;html=1;align=center;verticalAlign=middle;resizable=0;points=[];autosize=1;strokeColor=none;" vertex="1" parent="WIyWlLk6GJQsqaUBKTNV-1">
          <mxGeometry x="690" y="40" width="110" height="50" as="geometry" />
        </mxCell>
      </root>
    </mxGraphModel>
  </diagram>
</mxfile>
